<mxfile host="app.diagrams.net" agent="Mozilla/5.0 (X11; Linux x86_64) AppleWebKit/537.36 (KHTML, like Gecko) Chrome/132.0.0.0 YaBrowser/25.2.0.0 Safari/537.36" version="26.2.14">
  <diagram name="Страница — 1" id="zoMS4LqTG-4JD5C473s8">
    <mxGraphModel dx="2015" dy="1809" grid="1" gridSize="10" guides="1" tooltips="1" connect="1" arrows="1" fold="1" page="1" pageScale="1" pageWidth="827" pageHeight="1169" math="0" shadow="0">
      <root>
        <mxCell id="0" />
        <mxCell id="1" parent="0" />
        <mxCell id="IAvjB-8o-SGQpHQ1kvBk-6" value="Студент" style="rounded=0;whiteSpace=wrap;html=1;fontFamily=Times New Roman;fontSize=14;fillColor=#fff2cc;strokeColor=#d6b656;" parent="1" vertex="1">
          <mxGeometry x="-140" y="-270" width="150" height="90" as="geometry" />
        </mxCell>
        <mxCell id="IAvjB-8o-SGQpHQ1kvBk-7" value="Сотрудник" style="rounded=0;whiteSpace=wrap;html=1;fontFamily=Times New Roman;fontSize=14;fillColor=#fff2cc;strokeColor=#d6b656;" parent="1" vertex="1">
          <mxGeometry x="320" y="-110" width="120" height="60" as="geometry" />
        </mxCell>
        <mxCell id="IAvjB-8o-SGQpHQ1kvBk-8" value="Университет" style="rounded=0;whiteSpace=wrap;html=1;fontFamily=Times New Roman;fontSize=14;fillColor=#fff2cc;strokeColor=#d6b656;" parent="1" vertex="1">
          <mxGeometry x="-125" y="-110" width="120" height="60" as="geometry" />
        </mxCell>
        <mxCell id="IAvjB-8o-SGQpHQ1kvBk-10" value="Академическая задолженность" style="rounded=0;whiteSpace=wrap;html=1;fontFamily=Times New Roman;fontSize=14;fillColor=#fff2cc;strokeColor=#d6b656;" parent="1" vertex="1">
          <mxGeometry x="120" y="-255" width="120" height="60" as="geometry" />
        </mxCell>
        <mxCell id="IAvjB-8o-SGQpHQ1kvBk-22" value="Отчетная информация" style="rounded=0;whiteSpace=wrap;html=1;fontFamily=Times New Roman;fontSize=14;fillColor=#fff2cc;strokeColor=#d6b656;" parent="1" vertex="1">
          <mxGeometry x="320" y="-255" width="120" height="60" as="geometry" />
        </mxCell>
        <mxCell id="IAvjB-8o-SGQpHQ1kvBk-36" value="Группа" style="rounded=1;whiteSpace=wrap;html=1;fontFamily=Times New Roman;fontSize=14;fillColor=#ffe6cc;strokeColor=#d79b00;" parent="1" vertex="1">
          <mxGeometry x="-360" y="-255" width="120" height="60" as="geometry" />
        </mxCell>
        <mxCell id="IAvjB-8o-SGQpHQ1kvBk-38" value="Факультет" style="rounded=1;whiteSpace=wrap;html=1;fontFamily=Times New Roman;fontSize=14;fillColor=#ffe6cc;strokeColor=#d79b00;" parent="1" vertex="1">
          <mxGeometry x="-360" y="-110" width="120" height="60" as="geometry" />
        </mxCell>
        <mxCell id="IAvjB-8o-SGQpHQ1kvBk-73" value="Направление подготовки" style="rounded=1;whiteSpace=wrap;html=1;fontFamily=Times New Roman;fontSize=14;fillColor=#ffe6cc;strokeColor=#d79b00;" parent="1" vertex="1">
          <mxGeometry x="-360" y="20" width="120" height="60" as="geometry" />
        </mxCell>
        <mxCell id="Gt99MTRjlvwQo3MLIf0x-1" value="" style="endArrow=none;html=1;rounded=0;entryX=0;entryY=0.5;entryDx=0;entryDy=0;exitX=1;exitY=0.5;exitDx=0;exitDy=0;fontFamily=Times New Roman;fontSize=14;" edge="1" parent="1" source="IAvjB-8o-SGQpHQ1kvBk-36" target="IAvjB-8o-SGQpHQ1kvBk-6">
          <mxGeometry width="50" height="50" relative="1" as="geometry">
            <mxPoint x="-150" y="-180" as="sourcePoint" />
            <mxPoint x="-100" y="-230" as="targetPoint" />
          </mxGeometry>
        </mxCell>
        <mxCell id="Gt99MTRjlvwQo3MLIf0x-2" value="" style="endArrow=none;html=1;rounded=0;entryX=0.5;entryY=1;entryDx=0;entryDy=0;exitX=0.5;exitY=0;exitDx=0;exitDy=0;fontFamily=Times New Roman;fontSize=14;" edge="1" parent="1" source="IAvjB-8o-SGQpHQ1kvBk-38" target="IAvjB-8o-SGQpHQ1kvBk-36">
          <mxGeometry width="50" height="50" relative="1" as="geometry">
            <mxPoint x="-115" y="-140" as="sourcePoint" />
            <mxPoint x="-15" y="-140" as="targetPoint" />
          </mxGeometry>
        </mxCell>
        <mxCell id="Gt99MTRjlvwQo3MLIf0x-3" value="1" style="text;html=1;align=center;verticalAlign=middle;whiteSpace=wrap;rounded=0;fontFamily=Times New Roman;fontSize=14;" vertex="1" parent="1">
          <mxGeometry x="-240" y="-255" width="20" height="30" as="geometry" />
        </mxCell>
        <mxCell id="Gt99MTRjlvwQo3MLIf0x-5" value="N" style="text;html=1;align=center;verticalAlign=middle;whiteSpace=wrap;rounded=0;fontFamily=Times New Roman;fontSize=14;" vertex="1" parent="1">
          <mxGeometry x="-300" y="-195" width="20" height="30" as="geometry" />
        </mxCell>
        <mxCell id="Gt99MTRjlvwQo3MLIf0x-6" value="1" style="text;html=1;align=center;verticalAlign=middle;whiteSpace=wrap;rounded=0;fontFamily=Times New Roman;fontSize=14;" vertex="1" parent="1">
          <mxGeometry x="-300" y="-140" width="20" height="30" as="geometry" />
        </mxCell>
        <mxCell id="Gt99MTRjlvwQo3MLIf0x-7" value="" style="endArrow=none;html=1;rounded=0;entryX=0.5;entryY=1;entryDx=0;entryDy=0;exitX=0.5;exitY=0;exitDx=0;exitDy=0;fontFamily=Times New Roman;fontSize=14;" edge="1" parent="1" source="IAvjB-8o-SGQpHQ1kvBk-73" target="IAvjB-8o-SGQpHQ1kvBk-38">
          <mxGeometry width="50" height="50" relative="1" as="geometry">
            <mxPoint x="-290" y="-100" as="sourcePoint" />
            <mxPoint x="-290" y="-185" as="targetPoint" />
          </mxGeometry>
        </mxCell>
        <mxCell id="Gt99MTRjlvwQo3MLIf0x-8" value="N" style="text;html=1;align=center;verticalAlign=middle;whiteSpace=wrap;rounded=0;fontFamily=Times New Roman;fontSize=14;" vertex="1" parent="1">
          <mxGeometry x="-300" y="-50" width="20" height="30" as="geometry" />
        </mxCell>
        <mxCell id="Gt99MTRjlvwQo3MLIf0x-9" value="1" style="text;html=1;align=center;verticalAlign=middle;whiteSpace=wrap;rounded=0;fontFamily=Times New Roman;fontSize=14;" vertex="1" parent="1">
          <mxGeometry x="-300" y="-10" width="20" height="30" as="geometry" />
        </mxCell>
        <mxCell id="Gt99MTRjlvwQo3MLIf0x-10" value="" style="endArrow=none;html=1;rounded=0;entryX=1;entryY=0.5;entryDx=0;entryDy=0;exitX=0;exitY=0.5;exitDx=0;exitDy=0;fontFamily=Times New Roman;fontSize=14;" edge="1" parent="1" source="IAvjB-8o-SGQpHQ1kvBk-10" target="IAvjB-8o-SGQpHQ1kvBk-6">
          <mxGeometry width="50" height="50" relative="1" as="geometry">
            <mxPoint x="-58" y="-370" as="sourcePoint" />
            <mxPoint x="-130" y="-215" as="targetPoint" />
          </mxGeometry>
        </mxCell>
        <mxCell id="Gt99MTRjlvwQo3MLIf0x-14" value="" style="endArrow=none;html=1;rounded=0;exitX=0.5;exitY=1;exitDx=0;exitDy=0;fontFamily=Times New Roman;fontSize=14;" edge="1" parent="1" source="IAvjB-8o-SGQpHQ1kvBk-22" target="IAvjB-8o-SGQpHQ1kvBk-7">
          <mxGeometry width="50" height="50" relative="1" as="geometry">
            <mxPoint x="-49" y="29" as="sourcePoint" />
            <mxPoint x="200" y="-170" as="targetPoint" />
          </mxGeometry>
        </mxCell>
        <mxCell id="Gt99MTRjlvwQo3MLIf0x-15" value="N" style="text;html=1;align=center;verticalAlign=middle;whiteSpace=wrap;rounded=0;fontFamily=Times New Roman;fontSize=14;" vertex="1" parent="1">
          <mxGeometry x="100" y="-255" width="20" height="30" as="geometry" />
        </mxCell>
        <mxCell id="Gt99MTRjlvwQo3MLIf0x-16" value="1" style="text;html=1;align=center;verticalAlign=middle;whiteSpace=wrap;rounded=0;fontFamily=Times New Roman;fontSize=14;" vertex="1" parent="1">
          <mxGeometry x="10" y="-255" width="20" height="30" as="geometry" />
        </mxCell>
        <mxCell id="Gt99MTRjlvwQo3MLIf0x-17" value="" style="endArrow=none;html=1;rounded=0;exitX=0;exitY=0.5;exitDx=0;exitDy=0;entryX=1;entryY=0.5;entryDx=0;entryDy=0;fontFamily=Times New Roman;fontSize=14;" edge="1" parent="1" source="IAvjB-8o-SGQpHQ1kvBk-22" target="IAvjB-8o-SGQpHQ1kvBk-10">
          <mxGeometry width="50" height="50" relative="1" as="geometry">
            <mxPoint x="182" y="30" as="sourcePoint" />
            <mxPoint y="50" as="targetPoint" />
          </mxGeometry>
        </mxCell>
        <mxCell id="Gt99MTRjlvwQo3MLIf0x-18" value="N" style="text;html=1;align=center;verticalAlign=middle;whiteSpace=wrap;rounded=0;fontFamily=Times New Roman;fontSize=14;" vertex="1" parent="1">
          <mxGeometry x="240" y="-255" width="20" height="30" as="geometry" />
        </mxCell>
        <mxCell id="Gt99MTRjlvwQo3MLIf0x-19" value="1" style="text;html=1;align=center;verticalAlign=middle;whiteSpace=wrap;rounded=0;fontFamily=Times New Roman;fontSize=14;" vertex="1" parent="1">
          <mxGeometry x="300" y="-255" width="20" height="30" as="geometry" />
        </mxCell>
        <mxCell id="Gt99MTRjlvwQo3MLIf0x-20" value="" style="endArrow=none;html=1;rounded=0;entryX=0.5;entryY=1;entryDx=0;entryDy=0;fontFamily=Times New Roman;fontSize=14;" edge="1" parent="1" source="IAvjB-8o-SGQpHQ1kvBk-8" target="IAvjB-8o-SGQpHQ1kvBk-6">
          <mxGeometry width="50" height="50" relative="1" as="geometry">
            <mxPoint x="-50" y="-50" as="sourcePoint" />
            <mxPoint y="-100" as="targetPoint" />
          </mxGeometry>
        </mxCell>
        <mxCell id="Gt99MTRjlvwQo3MLIf0x-21" value="" style="endArrow=none;html=1;rounded=0;entryX=1;entryY=0.5;entryDx=0;entryDy=0;exitX=0;exitY=0.5;exitDx=0;exitDy=0;fontFamily=Times New Roman;fontSize=14;" edge="1" parent="1" source="IAvjB-8o-SGQpHQ1kvBk-8" target="IAvjB-8o-SGQpHQ1kvBk-38">
          <mxGeometry width="50" height="50" relative="1" as="geometry">
            <mxPoint x="-55" y="-100" as="sourcePoint" />
            <mxPoint x="-55" y="-170" as="targetPoint" />
          </mxGeometry>
        </mxCell>
        <mxCell id="Gt99MTRjlvwQo3MLIf0x-22" value="1" style="text;html=1;align=center;verticalAlign=middle;whiteSpace=wrap;rounded=0;fontFamily=Times New Roman;fontSize=14;" vertex="1" parent="1">
          <mxGeometry x="-145" y="-110" width="20" height="30" as="geometry" />
        </mxCell>
        <mxCell id="Gt99MTRjlvwQo3MLIf0x-23" value="N" style="text;html=1;align=center;verticalAlign=middle;whiteSpace=wrap;rounded=0;fontFamily=Times New Roman;fontSize=14;" vertex="1" parent="1">
          <mxGeometry x="-240" y="-110" width="20" height="30" as="geometry" />
        </mxCell>
        <mxCell id="Gt99MTRjlvwQo3MLIf0x-25" value="1" style="text;html=1;align=center;verticalAlign=middle;whiteSpace=wrap;rounded=0;fontFamily=Times New Roman;fontSize=14;" vertex="1" parent="1">
          <mxGeometry x="-64" y="-140" width="20" height="30" as="geometry" />
        </mxCell>
        <mxCell id="Gt99MTRjlvwQo3MLIf0x-26" value="" style="endArrow=none;html=1;rounded=0;exitX=1;exitY=0.5;exitDx=0;exitDy=0;entryX=0;entryY=0.5;entryDx=0;entryDy=0;fontFamily=Times New Roman;fontSize=14;" edge="1" parent="1" source="IAvjB-8o-SGQpHQ1kvBk-8" target="IAvjB-8o-SGQpHQ1kvBk-7">
          <mxGeometry width="50" height="50" relative="1" as="geometry">
            <mxPoint x="180" y="-185" as="sourcePoint" />
            <mxPoint x="180" y="-100" as="targetPoint" />
          </mxGeometry>
        </mxCell>
        <mxCell id="Gt99MTRjlvwQo3MLIf0x-27" value="N" style="text;html=1;align=center;verticalAlign=middle;whiteSpace=wrap;rounded=0;fontFamily=Times New Roman;fontSize=14;" vertex="1" parent="1">
          <mxGeometry x="300" y="-110" width="20" height="30" as="geometry" />
        </mxCell>
        <mxCell id="Gt99MTRjlvwQo3MLIf0x-28" value="1" style="text;html=1;align=center;verticalAlign=middle;whiteSpace=wrap;rounded=0;fontFamily=Times New Roman;fontSize=14;" vertex="1" parent="1">
          <mxGeometry x="-5" y="-110" width="20" height="30" as="geometry" />
        </mxCell>
        <mxCell id="Gt99MTRjlvwQo3MLIf0x-29" value="1" style="text;html=1;align=center;verticalAlign=middle;whiteSpace=wrap;rounded=0;fontFamily=Times New Roman;fontSize=14;" vertex="1" parent="1">
          <mxGeometry x="380" y="-195" width="20" height="30" as="geometry" />
        </mxCell>
        <mxCell id="Gt99MTRjlvwQo3MLIf0x-30" value="N" style="text;html=1;align=center;verticalAlign=middle;whiteSpace=wrap;rounded=0;fontFamily=Times New Roman;fontSize=14;" vertex="1" parent="1">
          <mxGeometry x="380" y="-140" width="20" height="30" as="geometry" />
        </mxCell>
        <mxCell id="Gt99MTRjlvwQo3MLIf0x-32" value="1" style="text;html=1;align=center;verticalAlign=middle;whiteSpace=wrap;rounded=0;fontFamily=Times New Roman;fontSize=14;" vertex="1" parent="1">
          <mxGeometry x="-64" y="-180" width="20" height="30" as="geometry" />
        </mxCell>
        <mxCell id="Gt99MTRjlvwQo3MLIf0x-33" value="1" style="text;html=1;align=center;verticalAlign=middle;whiteSpace=wrap;rounded=0;fontFamily=Times New Roman;fontSize=14;" vertex="1" parent="1">
          <mxGeometry x="-160" y="-255" width="20" height="30" as="geometry" />
        </mxCell>
      </root>
    </mxGraphModel>
  </diagram>
</mxfile>
